<svg width="44" height="44" viewBox="0 0 44 44" fill="none" xmlns="http://www.w3.org/2000/svg">
<path d="M9.16667 7.33301H16.5L20.1667 16.4997L15.5833 19.2497C17.5468 23.2308 20.7689 26.4529 24.75 28.4163L27.5 23.833L36.6667 27.4997V34.833C36.6667 35.8055 36.2804 36.7381 35.5927 37.4257C34.9051 38.1134 33.9725 38.4997 33 38.4997C25.8487 38.0651 19.1036 35.0283 14.0375 29.9622C8.97142 24.8961 5.93459 18.151 5.5 10.9997C5.5 10.0272 5.88631 9.09458 6.57394 8.40695C7.26158 7.71932 8.19421 7.33301 9.16667 7.33301" stroke="#2C3E50" stroke-width="2.75" stroke-linecap="round" stroke-linejoin="round"/>
<path d="M27.5 12.833C28.4725 12.833 29.4051 13.2193 30.0927 13.9069C30.7804 14.5946 31.1667 15.5272 31.1667 16.4997" stroke="#2C3E50" stroke-width="2.75" stroke-linecap="round" stroke-linejoin="round"/>
<path d="M27.5 5.5C30.4174 5.5 33.2153 6.65893 35.2782 8.72183C37.3411 10.7847 38.5 13.5826 38.5 16.5" stroke="#2C3E50" stroke-width="2.75" stroke-linecap="round" stroke-linejoin="round"/>
</svg>
