<svg width="512" height="512" viewBox="0 0 512 512" fill="none" xmlns="http://www.w3.org/2000/svg">
<path d="M302.933 42.667H251.733C244.659 42.667 238.933 48.393 238.933 55.467C238.933 62.541 244.659 68.267 251.733 68.267H302.933C310.007 68.267 315.733 62.541 315.733 55.467C315.733 48.393 310.007 42.667 302.933 42.667Z" fill="white"/>
<path d="M358.4 0H153.6C125.372 0 102.4 22.972 102.4 51.2V460.8C102.4 489.028 125.372 512 153.6 512H358.4C386.628 512 409.6 489.028 409.6 460.8V51.2C409.6 22.972 386.628 0 358.4 0ZM384 460.8C384 474.94 372.54 486.4 358.4 486.4H153.6C139.46 486.4 128 474.94 128 460.8V51.2C128 37.06 139.46 25.6 153.6 25.6H358.4C372.54 25.6 384 37.06 384 51.2V460.8Z" fill="white"/>
<path d="M256 469.333C270.139 469.333 281.6 457.871 281.6 443.733C281.6 429.594 270.139 418.133 256 418.133C241.862 418.133 230.4 429.594 230.4 443.733C230.4 457.871 241.862 469.333 256 469.333Z" fill="white"/>
<path d="M209.067 68.267C216.136 68.267 221.867 62.5362 221.867 55.467C221.867 48.3977 216.136 42.667 209.067 42.667C201.998 42.667 196.267 48.3977 196.267 55.467C196.267 62.5362 201.998 68.267 209.067 68.267Z" fill="white"/>
</svg>
