<svg width="512" height="512" viewBox="0 0 512 512" fill="none" xmlns="http://www.w3.org/2000/svg">
<path d="M407.957 66.0479H104.043C74.112 66.0479 49.7707 90.3892 49.7707 120.32V315.691C49.7707 345.621 74.112 369.962 104.043 369.962H210.923L203.179 424.234H180.032C174.037 424.234 169.173 429.098 169.173 435.093C169.173 441.088 174.037 445.952 180.032 445.952H212.587H299.413H331.968C337.963 445.952 342.827 441.088 342.827 435.093C342.827 429.098 337.963 424.234 331.968 424.234H308.821L301.077 369.962H407.957C437.888 369.962 462.229 345.621 462.229 315.691V120.32C462.229 90.4105 437.867 66.0479 407.957 66.0479ZM225.109 424.234L232.853 369.962H279.147L286.891 424.234H225.109ZM440.512 315.691C440.512 333.653 425.899 348.245 407.957 348.245H288.576H223.445H104.043C86.08 348.245 71.488 333.632 71.488 315.691V304.832H440.512V315.691V315.691ZM440.512 283.136H71.488V120.32C71.488 102.357 86.1013 87.7652 104.043 87.7652H407.957C425.92 87.7652 440.512 102.379 440.512 120.32V283.136Z" fill="white"/>
</svg>
