<svg width="512" height="512" viewBox="0 0 512 512" fill="none" xmlns="http://www.w3.org/2000/svg">
<path d="M283.089 495.999H229.329C214.395 495.999 200.955 489.597 191.995 478.717C184.102 468.904 181.115 456.319 183.889 444.373L192.635 405.759C194.342 398.506 200.742 393.384 208.209 393.384H304.209C311.676 393.384 318.076 398.506 319.782 405.759L328.529 444.373C331.302 457.173 328.742 469.546 320.849 479.359C312.102 489.813 298.449 495.999 283.089 495.999V495.999ZM221.009 424.959L215.035 451.199C214.395 454.399 215.675 456.959 216.955 458.453C219.729 461.866 224.209 463.786 229.329 463.786H283.089C288.636 463.786 293.329 462.079 295.889 458.879C297.596 456.746 298.022 454.186 297.382 450.986L291.409 424.746H221.009V424.959Z" fill="white"/>
<path d="M304.213 424.96C299.733 424.96 295.467 423.253 292.267 419.626C286.507 413.013 286.933 402.986 293.547 397.013L330.453 364.158C345.173 351.144 344.533 347.946 333.653 334.293L268.587 251.733C264.96 247.253 260.693 244.693 256.213 244.693C251.733 244.693 247.467 247.253 243.84 251.733L178.774 334.293C167.254 349.013 167.467 352.213 181.547 363.733L218.881 397.013C225.494 402.773 226.134 413.013 220.16 419.626C214.187 426.24 204.16 426.88 197.547 420.906L160.64 388.051C133.76 366.078 131.414 342.613 153.6 314.453L218.667 231.893C228.267 219.733 241.92 212.692 256.213 212.692C270.507 212.692 284.16 219.733 293.76 231.893L358.827 314.453C380.8 342.186 378.667 364.371 351.787 388.051L314.88 420.906C311.68 423.68 307.84 424.96 304.213 424.96Z" fill="white"/>
<path d="M256.209 307.2C247.462 307.2 240.209 299.947 240.209 291.2V237.227C240.209 228.48 247.462 221.227 256.209 221.227C264.956 221.227 272.209 228.48 272.209 237.227V291.2C272.209 300.16 264.956 307.2 256.209 307.2Z" fill="white"/>
<path d="M256 134.187C245.333 134.187 234.667 130.133 226.561 122.027L209.92 105.388C193.707 89.1743 193.707 62.7207 209.92 46.5074L226.561 29.868C242.773 13.6547 269.227 13.6547 285.44 29.868L302.08 46.5074C318.293 62.7207 318.293 89.1743 302.08 105.388L285.44 122.027C277.333 130.133 266.667 134.187 256 134.187ZM256 49.7078C253.44 49.7078 251.093 50.5614 249.173 52.4814L232.534 69.1205C230.827 70.8272 229.76 73.3874 229.76 75.9474C229.76 78.5074 230.827 80.8543 232.534 82.7743L249.173 99.4136C252.8 103.04 259.2 103.04 262.827 99.4136L279.467 82.7743C281.173 81.0676 282.24 78.5074 282.24 75.9474C282.24 73.3874 281.173 71.0405 279.467 69.1205L262.827 52.4814C260.907 50.7747 258.56 49.7078 256 49.7078V49.7078Z" fill="white"/>
<path d="M438.4 299.949H414.933C391.893 299.949 373.333 281.173 373.333 258.347V234.882C373.333 211.841 392.107 193.281 414.933 193.281H438.4C461.44 193.281 480 212.055 480 234.882V258.347C480 281.387 461.227 299.949 438.4 299.949V299.949ZM414.933 225.282C409.6 225.282 405.333 229.549 405.333 234.882V258.347C405.333 263.68 409.6 267.949 414.933 267.949H438.4C443.733 267.949 448 263.68 448 258.347V234.882C448 229.549 443.733 225.282 438.4 225.282H414.933Z" fill="white"/>
<path d="M97.0667 299.949H73.6C50.56 299.949 32 281.173 32 258.347V234.882C32 211.841 50.7733 193.281 73.6 193.281H97.0667C120.107 193.281 138.667 212.055 138.667 234.882V258.347C138.667 281.387 119.893 299.949 97.0667 299.949V299.949ZM73.6 225.282C68.2667 225.282 64 229.549 64 234.882V258.347C64 263.68 68.2667 267.949 73.6 267.949H97.0667C102.4 267.949 106.667 263.68 106.667 258.347V234.882C106.667 229.549 102.4 225.282 97.0667 225.282H73.6Z" fill="white"/>
<path d="M395.524 231.465C391.471 231.465 387.418 229.973 384.218 226.773L271.151 113.706C264.964 107.52 264.964 97.2798 271.151 91.0931C277.338 84.9065 287.578 84.9065 293.764 91.0931L406.831 204.16C413.018 210.346 413.018 220.587 406.831 226.773C403.631 229.973 399.578 231.465 395.524 231.465V231.465Z" fill="white"/>
<path d="M116.478 231.465C112.425 231.465 108.371 229.973 105.171 226.773C98.9845 220.587 98.9845 210.346 105.171 204.16L218.238 91.0931C224.425 84.9065 234.665 84.9065 240.851 91.0931C247.038 97.2798 247.038 107.52 240.851 113.706L127.785 226.773C124.585 229.973 120.531 231.465 116.478 231.465V231.465Z" fill="white"/>
</svg>
