<svg width="301" height="101" viewBox="0 0 301 101" fill="none" xmlns="http://www.w3.org/2000/svg">
<path d="M25.8807 0.0996094C32.2545 0.0996094 37.2943 0.692524 41 1.87835C44.7798 2.99007 47.485 4.99116 49.1155 7.88162C50.8201 10.7721 51.6725 14.8484 51.6725 20.1105C51.6725 25.595 50.6349 29.7824 48.5597 32.6729C46.5586 35.5633 43.2605 37.2309 38.6654 37.6756V38.1203C44.3722 38.6391 48.3744 40.6402 50.6719 44.1236C52.9695 47.6069 54.1182 52.4244 54.1182 58.5759C54.1182 63.838 53.2659 67.9143 51.5613 70.8047C49.9308 73.6952 47.2997 75.7333 43.6681 76.9192C40.0365 78.0309 35.2561 78.5868 29.327 78.5868C24.806 78.5868 20.915 78.5497 17.654 78.4756C14.467 78.4756 11.5025 78.4015 8.76023 78.2532C6.01799 78.105 3.16459 77.9197 0.200012 77.6974L1.75641 69.1372C3.38693 69.2113 6.53679 69.2854 11.206 69.3595C15.8752 69.4336 21.3226 69.4707 27.5482 69.4707C31.4022 69.4707 34.4409 69.1372 36.6643 68.4701C38.8877 67.8031 40.4812 66.5432 41.4447 64.6903C42.4082 62.8374 42.8899 60.1323 42.8899 56.5748C42.8899 52.7208 42.3711 49.7933 41.3335 47.7922C40.37 45.717 38.7395 44.2718 36.442 43.4565C34.1444 42.5672 30.9575 42.0854 26.8812 42.0113H1.64524V33.8958H26.77C30.3275 33.8217 33.1439 33.4511 35.2191 32.7841C37.2943 32.117 38.7766 30.8941 39.6659 29.1154C40.5553 27.2625 41 24.7056 41 21.4446C41 18.1094 40.5182 15.5525 39.5548 13.7737C38.5913 11.995 36.9608 10.8091 34.6632 10.2162C32.3657 9.54919 29.2529 9.21568 25.3248 9.21568C21.6191 9.21568 18.2839 9.21568 15.3193 9.21568C12.3548 9.21568 9.76077 9.25273 7.53734 9.32685C5.31391 9.32685 3.38693 9.40097 1.75641 9.54919L0.200012 0.988977C2.86813 0.692524 5.38802 0.507238 7.75968 0.43312C10.2055 0.284893 12.8365 0.21078 15.6529 0.21078C18.5433 0.136666 21.9526 0.0996094 25.8807 0.0996094ZM11.0948 0.988977V77.6974H0.200012V0.988977H11.0948Z" fill="#27383F"/>
<path d="M79.5791 23.4456V77.6974H69.0178V23.4456H79.5791ZM76.7998 0.21078C78.9492 0.21078 80.0238 1.28544 80.0238 3.43475V9.77154C80.0238 11.9209 78.9492 12.9955 76.7998 12.9955H71.7971C69.6478 12.9955 68.5731 11.9209 68.5731 9.77154V3.43475C68.5731 1.28544 69.6478 0.21078 71.7971 0.21078H76.7998Z" fill="#27383F"/>
<path d="M130.599 22.1116C140.456 22.1116 145.385 27.0772 145.385 37.0086V77.6974H134.601V40.1214C134.601 36.7121 134.045 34.3775 132.934 33.1176C131.822 31.7835 129.932 31.1165 127.264 31.1165C124.077 31.1165 120.89 31.8947 117.703 33.4511C114.516 34.9334 110.699 37.0086 106.252 39.6767L105.808 32.4505C109.958 29.1154 114.109 26.5584 118.259 24.7797C122.409 23.001 126.523 22.1116 130.599 22.1116ZM105.585 23.4456L106.586 33.8958L107.364 35.4522V77.6974H96.6917V23.4456H105.585Z" fill="#27383F"/>
<path d="M172.951 23.4456V78.2532C172.951 81.2919 172.506 84.1453 171.617 86.8135C170.728 89.5557 169.431 92.0385 167.726 94.262C166.096 96.5595 164.132 98.5235 161.834 100.154L155.942 95.4848C158.165 92.8167 159.759 90.1486 160.722 87.4805C161.76 84.8124 162.279 81.7366 162.279 78.2532V23.4456H172.951ZM170.172 0.0996094C172.247 0.0996094 173.285 1.17427 173.285 3.32358V9.66036C173.285 11.8097 172.247 12.8843 170.172 12.8843H165.169C163.02 12.8843 161.945 11.8097 161.945 9.66036V3.32358C161.945 1.17427 163.02 0.0996094 165.169 0.0996094H170.172Z" fill="#27383F"/>
<path d="M216.184 22.1116C220.334 22.1116 223.818 22.6674 226.634 23.7792C229.524 24.8168 231.674 26.6326 233.082 29.2266C234.564 31.8206 235.305 35.3781 235.305 39.899V77.6974H226.856L225.189 65.9132L224.522 64.5791V39.899C224.522 36.7121 223.781 34.4146 222.298 33.0064C220.816 31.5982 218 30.8941 213.849 30.8941C211.033 30.8941 207.475 31.0424 203.177 31.3388C198.952 31.6353 194.765 31.9317 190.614 32.2282L189.614 24.5574C192.134 24.1127 194.913 23.705 197.952 23.3345C201.064 22.9639 204.214 22.6674 207.401 22.4451C210.588 22.2228 213.516 22.1116 216.184 22.1116ZM230.414 44.2347L230.303 51.7944L204.733 51.9056C202.213 51.9797 200.435 52.6467 199.397 53.9067C198.433 55.0925 197.952 56.7601 197.952 58.9094V62.2445C197.952 64.9126 198.582 66.8767 199.842 68.1366C201.176 69.3225 203.251 69.9154 206.067 69.9154C208.142 69.9154 210.44 69.5448 212.96 68.8036C215.554 67.9884 218.148 66.8026 220.742 65.2462C223.336 63.6156 225.67 61.5775 227.746 59.1317V66.1355C227.005 67.1731 225.893 68.4331 224.411 69.9154C222.928 71.3235 221.112 72.6947 218.963 74.0287C216.888 75.3628 214.553 76.4745 211.959 77.3639C209.439 78.2532 206.66 78.6979 203.621 78.6979C200.36 78.6979 197.47 78.1421 194.95 77.0304C192.504 75.8445 190.577 74.1399 189.169 71.9165C187.761 69.6189 187.057 66.8396 187.057 63.5786V57.6865C187.057 53.462 188.391 50.1639 191.059 47.7922C193.801 45.4206 197.581 44.2347 202.399 44.2347H230.414Z" fill="#27383F"/>
<path d="M285.414 22.1116C295.271 22.1116 300.2 27.0772 300.2 37.0086V77.6974H289.416V40.1214C289.416 36.7121 288.861 34.3775 287.749 33.1176C286.637 31.7835 284.747 31.1165 282.079 31.1165C278.892 31.1165 275.705 31.8947 272.518 33.4511C269.331 34.9334 265.514 37.0086 261.068 39.6767L260.623 32.4505C264.773 29.1154 268.924 26.5584 273.074 24.7797C277.225 23.001 281.338 22.1116 285.414 22.1116ZM260.401 23.4456L261.401 33.8958L262.179 35.4522V77.6974H251.507V23.4456H260.401Z" fill="#27383F"/>
</svg>
